<svg version="1.2" xmlns="http://www.w3.org/2000/svg" viewBox="0 0 146 24" width="146" height="24">
	<title>logo-svg</title>
	<style>
		.s0 { fill: #ffffff } 
		.s1 { fill: #f3603c } 
		.s2 { opacity: .5;fill: #f3603c } 
	</style>
	<g id="Layer">
		<path id="Layer" fill-rule="evenodd" class="s0" d="m36.2 16.8v-8.6q0-4.7-3.3-4.7-1.7 0-2.8 1.3-1.1 1.4-1.1 3.8v8.2h-3.8v-16.5h3.8v2.2q0.3-0.2 0.5-0.5 0.3-0.3 0.6-0.5 0.3-0.3 0.6-0.5 0.3-0.2 0.7-0.3 1.3-0.7 2.8-0.7 3.4 0 4.9 2.8h0.1q0.2-0.4 0.5-0.7 0.3-0.3 0.6-0.5 0.4-0.3 0.7-0.5 0.4-0.2 0.7-0.4 1.6-0.7 3.4-0.7 2.8 0 4.3 1.8 1.5 1.8 1.5 5.4v9.6h-3.8v-8.6q0-4.7-3.2-4.7-1.7 0-2.8 1.3-1.1 1.4-1.1 3.8v8.2zm24.1 0.2q-0.4 0-0.8-0.1-0.4-0.1-0.8-0.2-0.4-0.1-0.8-0.2-0.3-0.2-0.7-0.4-0.3-0.1-0.6-0.4-0.4-0.2-0.7-0.4-0.2-0.3-0.5-0.5-1.1-1.1-1.7-2.7-0.6-1.6-0.6-3.5 0-0.4 0-0.9 0.1-0.4 0.2-0.8 0-0.5 0.1-0.9 0.2-0.4 0.3-0.8 0.6-1.6 1.7-2.8 0.5-0.5 1.2-1 0.6-0.5 1.4-0.8 0.7-0.3 1.5-0.4 0.8-0.2 1.6-0.2 3.2 0 5.1 2.3v-2h3.8v16.5h-3.6v-2.2h-0.1q-1.8 2.5-5.2 2.5-0.4 0-0.8-0.1zm4.7-4.8q1.4-1.4 1.4-3.6 0-2.2-1.3-3.7-1.4-1.4-3.4-1.4-2 0-3.4 1.4-1.3 1.4-1.3 3.7 0 2.2 1.3 3.6 1.3 1.4 3.4 1.4 2 0 3.3-1.4zm20 4.6v-8.8q0-1.3-0.2-2.1-0.2-0.9-0.7-1.5-0.5-0.5-1.1-0.7-0.7-0.2-1.6-0.2-1.9 0-3.1 1.3-1.1 1.3-1.1 3.7v8.3h-3.8v-16.5h3.8v2.2q0.3-0.3 0.5-0.5 0.3-0.3 0.6-0.5 0.4-0.3 0.7-0.5 0.3-0.2 0.7-0.3 0.3-0.2 0.7-0.3 0.4-0.1 0.8-0.2 0.4-0.1 0.8-0.1 0.4-0.1 0.7-0.1 2.9 0 4.5 1.7 1.6 1.8 1.6 5.4v9.7zm13.2 0.2q-0.4 0-0.8-0.1-0.4-0.1-0.8-0.2-0.4-0.1-0.8-0.2-0.3-0.2-0.7-0.4-0.3-0.1-0.6-0.4-0.4-0.2-0.6-0.4-0.3-0.3-0.6-0.5-1.1-1.1-1.7-2.7-0.6-1.6-0.6-3.5 0-0.4 0-0.9 0.1-0.4 0.2-0.8 0-0.5 0.2-0.9 0.1-0.4 0.2-0.8 0.6-1.6 1.7-2.8 0.5-0.5 1.2-1 0.6-0.5 1.4-0.8 0.7-0.3 1.5-0.4 0.8-0.2 1.6-0.2 3.2 0 5.1 2.3v-2h3.8v16.5h-3.6v-2.2q-1.9 2.5-5.3 2.5-0.4 0-0.8-0.1zm4.7-4.8q1.4-1.4 1.4-3.6 0-2.2-1.3-3.7-1.4-1.4-3.4-1.4-2 0-3.4 1.4-1.3 1.4-1.3 3.7 0 2.2 1.3 3.6 1.3 1.4 3.4 1.4 2 0 3.3-1.4zm12.2 11.1q-1.8-0.5-3.2-1.3l0.9-3.3q1.6 0.8 2.8 1.2 1.3 0.4 2.9 0.4 2.3 0 3.6-1.1 1.3-1.2 1.3-3v-1.7h-0.1q-1.9 2-5 2-2.3 0-4.1-1-1.9-1-2.9-2.9-1.1-1.8-1.1-4.2 0-2.4 1-4.3 1-1.9 2.8-3 1.8-1.1 4.1-1.1 0.4 0 0.7 0 0.4 0.1 0.7 0.1 0.4 0.1 0.7 0.2 0.3 0.1 0.7 0.2 0.3 0.1 0.6 0.3 0.3 0.2 0.6 0.3 0.3 0.2 0.6 0.4 0.3 0.3 0.5 0.5h0.1v-1.7h3.8v14.8q0 1.5-0.3 2.8-0.1 0.3-0.2 0.6-0.1 0.3-0.2 0.6-0.1 0.3-0.2 0.6-0.2 0.3-0.3 0.6-0.2 0.3-0.4 0.5-0.1 0.3-0.3 0.5-0.2 0.2-0.5 0.4-0.2 0.3-0.4 0.4-1 0.8-2.4 1.2-1.4 0.4-3.2 0.4-1.9 0-3.6-0.4zm7.1-11.6q1.3-1.4 1.3-3.5 0-2.1-1.4-3.4-1.3-1.3-3.3-1.3-2.1 0-3.4 1.3-1.3 1.3-1.3 3.4 0 2.2 1.3 3.5 1.4 1.3 3.4 1.3 2.1 0 3.4-1.3zm11.4 4.3q-1.9-1-3-3-1.2-1.9-1.2-4.5 0-1.8 0.7-3.4 0.6-1.6 1.6-2.7 1.1-1.1 2.6-1.8 0.4-0.1 0.8-0.2 0.4-0.2 0.8-0.2 0.4-0.1 0.8-0.1 0.4-0.1 0.8-0.1 2.4 0 4.2 1.1 0.5 0.3 0.9 0.6 0.4 0.3 0.7 0.7 0.4 0.3 0.7 0.8 0.3 0.4 0.5 0.9 1 1.8 1 4.2 0 0.9-0.1 1.5h-12q0.3 1.8 1.6 2.8 1.3 1 3.1 1 2.5 0 4.1-1.9l2.6 2.2q-1.1 1.5-2.8 2.3-1.8 0.9-4.1 0.9-2.4 0-4.3-1.1zm6.7-11.6q-1-0.9-2.6-0.9-1.6 0-2.7 0.8-1.2 0.9-1.6 2.5h8.3q-0.4-1.6-1.4-2.4z"/>
		<g id="Layer">
			<path id="Layer" fill-rule="evenodd" class="s1" d="m2.8 10.3c1.5 0 2.8 1.3 2.8 2.8 0 1.6-1.3 2.9-2.8 2.9-1.6 0-2.8-1.3-2.8-2.9 0-1.5 1.2-2.8 2.8-2.8zm0-10.3c1.5 0 2.8 1.3 2.8 2.9 0 1.5-1.3 2.8-2.8 2.8-1.6 0-2.8-1.3-2.8-2.8 0-1.6 1.2-2.9 2.8-2.9zm10 0c1.6 0 2.8 1.3 2.8 2.9 0 1.5-1.2 2.8-2.8 2.8-1.5 0-2.8-1.3-2.8-2.8 0-1.6 1.3-2.9 2.8-2.9z"/>
			<path id="Layer" class="s2" d="m12.8 16.1c-1.5 0-2.8-1.3-2.8-2.8 0-1.6 1.3-2.9 2.8-2.9 1.6 0 2.8 1.3 2.8 2.9 0 1.5-1.2 2.8-2.8 2.8z"/>
		</g>
	</g>
</svg>